<mxfile host="app.diagrams.net" modified="2024-09-03T11:49:39.571Z" agent="Mozilla/5.0 (Windows NT 10.0; Win64; x64) AppleWebKit/537.36 (KHTML, like Gecko) Chrome/128.0.0.0 Safari/537.36 Edg/128.0.0.0" etag="M1w5BKNQzKslex6NXskX" version="24.7.1" type="github">
  <diagram name="Page-1" id="c37626ed-c26b-45fb-9056-f9ebc6bb27b6">
    <mxGraphModel dx="2049" dy="2203" grid="1" gridSize="10" guides="1" tooltips="1" connect="1" arrows="1" fold="1" page="1" pageScale="1" pageWidth="1100" pageHeight="850" background="none" math="0" shadow="0">
      <root>
        <mxCell id="0" />
        <mxCell id="1" parent="0" />
        <mxCell id="1c7a67bf8fd3230f-83" value="Group 1" style="whiteSpace=wrap;html=1;rounded=0;shadow=0;comic=0;strokeWidth=1;fontFamily=Verdana;fontSize=14;fillColor=#f5f5f5;strokeColor=none;verticalAlign=top;fontStyle=1" parent="1" vertex="1">
          <mxGeometry x="400" y="-50" width="1240" height="440" as="geometry" />
        </mxCell>
        <mxCell id="1c7a67bf8fd3230f-81" value="Group 3" style="whiteSpace=wrap;html=1;rounded=0;shadow=0;comic=0;strokeWidth=1;fontFamily=Verdana;fontSize=14;fillColor=#f5f5f5;strokeColor=none;fontStyle=1;verticalAlign=top;" parent="1" vertex="1">
          <mxGeometry x="1590" y="809.9999999999999" width="432" height="587" as="geometry" />
        </mxCell>
        <mxCell id="1c7a67bf8fd3230f-80" value="Group 2" style="whiteSpace=wrap;html=1;rounded=0;shadow=0;comic=0;strokeWidth=1;fontFamily=Verdana;fontSize=14;fillColor=#f5f5f5;strokeColor=none;fontStyle=1;verticalAlign=top;" parent="1" vertex="1">
          <mxGeometry y="680" width="1000" height="680" as="geometry" />
        </mxCell>
        <mxCell id="yBlWhkuQCFc7taDXwA0j-1" value="" style="sketch=0;outlineConnect=0;fontColor=#232F3E;gradientColor=none;fillColor=#7AA116;strokeColor=none;dashed=0;verticalLabelPosition=bottom;verticalAlign=top;align=center;html=1;fontSize=12;fontStyle=0;aspect=fixed;pointerEvents=1;shape=mxgraph.aws4.mqtt_protocol;" vertex="1" parent="1">
          <mxGeometry x="460" y="530" width="78" height="78" as="geometry" />
        </mxCell>
        <UserObject label="Systemdruck&lt;div&gt;Pneumatik&lt;/div&gt;" tooltip="Systemdruck Pneumatik" id="yBlWhkuQCFc7taDXwA0j-3">
          <mxCell style="sketch=0;outlineConnect=0;fontColor=#232F3E;gradientColor=none;fillColor=#7AA116;strokeColor=none;dashed=0;verticalLabelPosition=bottom;verticalAlign=top;align=center;html=1;fontSize=12;fontStyle=0;aspect=fixed;pointerEvents=1;shape=mxgraph.aws4.generic;" vertex="1" parent="1">
            <mxGeometry x="40" y="1200" width="78" height="78" as="geometry" />
          </mxCell>
        </UserObject>
        <mxCell id="yBlWhkuQCFc7taDXwA0j-4" value="Volumenstrom&lt;div&gt;Gesamt&lt;/div&gt;" style="sketch=0;outlineConnect=0;fontColor=#232F3E;gradientColor=none;fillColor=#7AA116;strokeColor=none;dashed=0;verticalLabelPosition=bottom;verticalAlign=top;align=center;html=1;fontSize=12;fontStyle=0;aspect=fixed;pointerEvents=1;shape=mxgraph.aws4.iot_thing_vibration_sensor;" vertex="1" parent="1">
          <mxGeometry x="640" y="1200" width="78" height="78" as="geometry" />
        </mxCell>
        <UserObject label="Systemdruck&lt;div&gt;Wasserzuleitung&lt;/div&gt;" tooltip="Systemdruck Pneumatik" id="yBlWhkuQCFc7taDXwA0j-5">
          <mxCell style="sketch=0;outlineConnect=0;fontColor=#232F3E;gradientColor=none;fillColor=#7AA116;strokeColor=none;dashed=0;verticalLabelPosition=bottom;verticalAlign=top;align=center;html=1;fontSize=12;fontStyle=0;aspect=fixed;pointerEvents=1;shape=mxgraph.aws4.generic;" vertex="1" parent="1">
            <mxGeometry x="160" y="1200" width="78" height="78" as="geometry" />
          </mxCell>
        </UserObject>
        <UserObject label="Filterdruck" tooltip="Systemdruck Pneumatik" id="yBlWhkuQCFc7taDXwA0j-6">
          <mxCell style="sketch=0;outlineConnect=0;fontColor=#232F3E;gradientColor=none;fillColor=#7AA116;strokeColor=none;dashed=0;verticalLabelPosition=bottom;verticalAlign=top;align=center;html=1;fontSize=12;fontStyle=0;aspect=fixed;pointerEvents=1;shape=mxgraph.aws4.generic;" vertex="1" parent="1">
            <mxGeometry x="280" y="1200" width="78" height="78" as="geometry" />
          </mxCell>
        </UserObject>
        <UserObject label="Unterdruck&lt;div&gt;saugseite&lt;/div&gt;" tooltip="Systemdruck Pneumatik" id="yBlWhkuQCFc7taDXwA0j-7">
          <mxCell style="sketch=0;outlineConnect=0;fontColor=#232F3E;gradientColor=none;fillColor=#7AA116;strokeColor=none;dashed=0;verticalLabelPosition=bottom;verticalAlign=top;align=center;html=1;fontSize=12;fontStyle=0;aspect=fixed;pointerEvents=1;shape=mxgraph.aws4.generic;" vertex="1" parent="1">
            <mxGeometry x="400" y="1200" width="78" height="78" as="geometry" />
          </mxCell>
        </UserObject>
        <UserObject label="Druck ELD-&lt;div&gt;Sammelrohr&lt;/div&gt;" tooltip="Systemdruck Pneumatik" id="yBlWhkuQCFc7taDXwA0j-8">
          <mxCell style="sketch=0;outlineConnect=0;fontColor=#232F3E;gradientColor=none;fillColor=#7AA116;strokeColor=none;dashed=0;verticalLabelPosition=bottom;verticalAlign=top;align=center;html=1;fontSize=12;fontStyle=0;aspect=fixed;pointerEvents=1;shape=mxgraph.aws4.generic;" vertex="1" parent="1">
            <mxGeometry x="520" y="1200" width="78" height="78" as="geometry" />
          </mxCell>
        </UserObject>
        <mxCell id="yBlWhkuQCFc7taDXwA0j-9" value="Volumenstrom&lt;div&gt;Messzelle&lt;/div&gt;" style="sketch=0;outlineConnect=0;fontColor=#232F3E;gradientColor=none;fillColor=#7AA116;strokeColor=none;dashed=0;verticalLabelPosition=bottom;verticalAlign=top;align=center;html=1;fontSize=12;fontStyle=0;aspect=fixed;pointerEvents=1;shape=mxgraph.aws4.iot_thing_vibration_sensor;" vertex="1" parent="1">
          <mxGeometry x="760" y="1200" width="78" height="78" as="geometry" />
        </mxCell>
        <mxCell id="yBlWhkuQCFc7taDXwA0j-10" value="Volumenstrom&lt;div&gt;Absorber&lt;/div&gt;" style="sketch=0;outlineConnect=0;fontColor=#232F3E;gradientColor=none;fillColor=#7AA116;strokeColor=none;dashed=0;verticalLabelPosition=bottom;verticalAlign=top;align=center;html=1;fontSize=12;fontStyle=0;aspect=fixed;pointerEvents=1;shape=mxgraph.aws4.iot_thing_vibration_sensor;" vertex="1" parent="1">
          <mxGeometry x="880" y="1200" width="78" height="78" as="geometry" />
        </mxCell>
        <mxCell id="yBlWhkuQCFc7taDXwA0j-21" style="edgeStyle=orthogonalEdgeStyle;rounded=0;orthogonalLoop=1;jettySize=auto;html=1;" edge="1" parent="1" source="yBlWhkuQCFc7taDXwA0j-11" target="yBlWhkuQCFc7taDXwA0j-12">
          <mxGeometry relative="1" as="geometry" />
        </mxCell>
        <mxCell id="yBlWhkuQCFc7taDXwA0j-11" value="" style="sketch=0;points=[[0,0,0],[0.25,0,0],[0.5,0,0],[0.75,0,0],[1,0,0],[0,1,0],[0.25,1,0],[0.5,1,0],[0.75,1,0],[1,1,0],[0,0.25,0],[0,0.5,0],[0,0.75,0],[1,0.25,0],[1,0.5,0],[1,0.75,0]];outlineConnect=0;fontColor=#232F3E;fillColor=#61820b;strokeColor=#ffffff;dashed=0;verticalLabelPosition=bottom;verticalAlign=top;align=center;html=1;fontSize=12;fontStyle=0;aspect=fixed;shape=mxgraph.aws4.resourceIcon;resIcon=mxgraph.aws4.compute;" vertex="1" parent="1">
          <mxGeometry x="460" y="760" width="78" height="78" as="geometry" />
        </mxCell>
        <mxCell id="yBlWhkuQCFc7taDXwA0j-13" style="edgeStyle=orthogonalEdgeStyle;rounded=0;orthogonalLoop=1;jettySize=auto;html=1;" edge="1" parent="1" source="yBlWhkuQCFc7taDXwA0j-12" target="yBlWhkuQCFc7taDXwA0j-7">
          <mxGeometry relative="1" as="geometry" />
        </mxCell>
        <mxCell id="yBlWhkuQCFc7taDXwA0j-14" style="edgeStyle=orthogonalEdgeStyle;rounded=0;orthogonalLoop=1;jettySize=auto;html=1;" edge="1" parent="1" source="yBlWhkuQCFc7taDXwA0j-12" target="yBlWhkuQCFc7taDXwA0j-6">
          <mxGeometry relative="1" as="geometry" />
        </mxCell>
        <mxCell id="yBlWhkuQCFc7taDXwA0j-15" style="edgeStyle=orthogonalEdgeStyle;rounded=0;orthogonalLoop=1;jettySize=auto;html=1;" edge="1" parent="1" source="yBlWhkuQCFc7taDXwA0j-12" target="yBlWhkuQCFc7taDXwA0j-5">
          <mxGeometry relative="1" as="geometry" />
        </mxCell>
        <mxCell id="yBlWhkuQCFc7taDXwA0j-16" style="edgeStyle=orthogonalEdgeStyle;rounded=0;orthogonalLoop=1;jettySize=auto;html=1;" edge="1" parent="1" source="yBlWhkuQCFc7taDXwA0j-12" target="yBlWhkuQCFc7taDXwA0j-3">
          <mxGeometry relative="1" as="geometry" />
        </mxCell>
        <mxCell id="yBlWhkuQCFc7taDXwA0j-17" style="edgeStyle=orthogonalEdgeStyle;rounded=0;orthogonalLoop=1;jettySize=auto;html=1;" edge="1" parent="1" source="yBlWhkuQCFc7taDXwA0j-12" target="yBlWhkuQCFc7taDXwA0j-4">
          <mxGeometry relative="1" as="geometry" />
        </mxCell>
        <mxCell id="yBlWhkuQCFc7taDXwA0j-18" style="edgeStyle=orthogonalEdgeStyle;rounded=0;orthogonalLoop=1;jettySize=auto;html=1;" edge="1" parent="1" source="yBlWhkuQCFc7taDXwA0j-12" target="yBlWhkuQCFc7taDXwA0j-8">
          <mxGeometry relative="1" as="geometry" />
        </mxCell>
        <mxCell id="yBlWhkuQCFc7taDXwA0j-19" style="edgeStyle=orthogonalEdgeStyle;rounded=0;orthogonalLoop=1;jettySize=auto;html=1;" edge="1" parent="1" source="yBlWhkuQCFc7taDXwA0j-12" target="yBlWhkuQCFc7taDXwA0j-9">
          <mxGeometry relative="1" as="geometry" />
        </mxCell>
        <mxCell id="yBlWhkuQCFc7taDXwA0j-20" style="edgeStyle=orthogonalEdgeStyle;rounded=0;orthogonalLoop=1;jettySize=auto;html=1;" edge="1" parent="1" source="yBlWhkuQCFc7taDXwA0j-12" target="yBlWhkuQCFc7taDXwA0j-10">
          <mxGeometry relative="1" as="geometry" />
        </mxCell>
        <mxCell id="yBlWhkuQCFc7taDXwA0j-12" value="IO-Link" style="sketch=0;outlineConnect=0;fontColor=#232F3E;gradientColor=none;fillColor=#a26716;strokeColor=none;dashed=0;verticalLabelPosition=bottom;verticalAlign=top;align=center;html=1;fontSize=12;fontStyle=0;aspect=fixed;pointerEvents=1;shape=mxgraph.aws4.iot_sitewise_data_streams;" vertex="1" parent="1">
          <mxGeometry x="460" y="938" width="78" height="78" as="geometry" />
        </mxCell>
        <mxCell id="yBlWhkuQCFc7taDXwA0j-22" style="edgeStyle=orthogonalEdgeStyle;rounded=0;orthogonalLoop=1;jettySize=auto;html=1;entryX=0.5;entryY=0;entryDx=0;entryDy=0;entryPerimeter=0;" edge="1" parent="1" source="yBlWhkuQCFc7taDXwA0j-1" target="yBlWhkuQCFc7taDXwA0j-11">
          <mxGeometry relative="1" as="geometry" />
        </mxCell>
      </root>
    </mxGraphModel>
  </diagram>
</mxfile>
